Coordinates
version=1
nRows=22
nColumns=24
inDegrees=yes

Units are S.I. units (second, meters, Newtons, ...)
Angles are in degrees.

endheader
time	pelvis_tilt	pelvis_list	pelvis_rotation	pelvis_tx	pelvis_ty	pelvis_tz	hip_flexion_r	hip_adduction_r	hip_rotation_r	knee_angle_r	ankle_angle_r	subtalar_angle_r	mtp_angle_r	hip_flexion_l	hip_adduction_l	hip_rotation_l	knee_angle_l	ankle_angle_l	subtalar_angle_l	mtp_angle_l	lumbar_extension	lumbar_bending	lumbar_rotation
      4.74000000	      4.84203029	      1.36225213	      8.19127398	      0.41572700	      0.87296894	     -0.28252322	     23.70390300	     -2.69986346	     -8.04827385	    -15.42770612	     13.15450043	      4.32993001	      0.00000000	    -32.43723637	      1.37321707	      8.36192828	     -8.92253641	      7.02678654	     -8.71444690	      0.00000000	    -32.80727402	      9.46667738	    -17.22029491
      4.75000000	      4.76288593	      1.15890283	      8.71247988	      0.43318930	      0.87074764	     -0.28223687	     24.94716155	     -2.84646046	     -8.85419197	    -19.26659941	     13.13262529	      4.58738107	      0.00000000	    -31.26733135	      0.70253828	      5.90111602	    -12.23024311	      6.62236078	     -5.72916455	      0.00000000	    -32.67688387	     10.16989988	    -17.47042814
      4.76000000	      4.66092058	      0.93161842	      9.07306575	      0.45074691	      0.86869944	     -0.28168468	     26.13269402	     -2.89285169	     -9.36525902	    -23.01780533	     13.49988657	      4.69558164	      0.00000000	    -29.92243600	      0.04700458	      4.04919749	    -15.68835947	      5.15221171	     -4.02502045	      0.00000000	    -32.47999696	     10.75547229	    -17.59036902
      4.77000000	      4.78394471	      0.55763006	      9.30739938	      0.46838720	      0.86715650	     -0.28091104	     26.90855254	     -2.68870017	     -9.86226815	    -26.50339432	     14.38849780	      4.89641568	      0.00000000	    -28.62775056	     -0.77413183	      2.41491285	    -19.30498773	      3.05857399	     -2.90829655	      0.00000000	    -32.49455294	     11.40743727	    -17.46472514
      4.78000000	      4.96703706	      0.12334681	      9.45547495	      0.48593885	      0.86598796	     -0.27994866	     27.37892590	     -2.32868749	    -10.29026872	    -29.59374229	     15.72197892	      5.13227187	      0.00000000	    -27.16721471	     -1.63307153	      1.16871903	    -23.13876938	      0.47351920	     -2.41152345	      0.00000000	    -32.54538463	     12.00792656	    -17.21951341
      4.79000000	      5.14948866	     -0.38188651	      9.58257468	      0.50326129	      0.86517369	     -0.27885290	     27.54404272	     -1.82796706	    -10.72870305	    -32.16092080	     17.35890166	      5.40321912	      0.00000000	    -25.43771884	     -2.55089710	      0.26434515	    -27.22535638	     -2.19409347	     -2.27299175	      0.00000000	    -32.56854599	     12.58228930	    -16.87285153
      4.80000000	      5.26767241	     -0.93915553	      9.74721230	      0.52022427	      0.86469476	     -0.27766566	     27.44372446	     -1.23074447	    -11.20556641	    -34.14048404	     19.11234588	      5.66719668	      0.00000000	    -23.36673419	     -3.52027192	     -0.32860951	    -31.54090795	     -4.53951044	     -2.30229576	      0.00000000	    -32.49527766	     13.12001891	    -16.53783237
      4.81000000	      5.29357492	     -1.57699092	      9.99677107	      0.53676649	      0.86459066	     -0.27645718	     27.09962284	     -0.52597981	    -11.75516822	    -35.48526832	     20.81747196	      5.85361948	      0.00000000	    -20.95264381	     -4.55537804	     -0.57458324	    -36.00053754	     -6.20695983	     -2.33240874	      0.00000000	    -32.29713844	     13.67796113	    -16.13188506
      4.82000000	      5.19034774	     -2.25110777	     10.34073404	      0.55284513	      0.86489542	     -0.27527908	     26.58548277	      0.21573282	    -12.39661292	    -36.24244796	     22.38672258	      6.00910580	      0.00000000	    -18.20709282	     -5.57554570	     -0.47757425	    -40.47900584	     -7.01881428	     -2.34528378	      0.00000000	    -31.94293902	     14.21858692	    -15.74193961
      4.83000000	      5.00537098	     -2.92716779	     10.78065304	      0.56848572	      0.86576787	     -0.27420946	     25.88074664	      0.96455794	    -13.10945627	    -36.45834612	     23.73399220	      6.14043632	      0.00000000	    -15.25400082	     -6.51289043	     -0.05816203	    -44.80632415	     -6.98868056	     -2.37843413	      0.00000000	    -31.48764919	     14.74252332	    -15.35632443
      4.84000000	      4.77321790	     -3.55285459	     11.25925264	      0.58374083	      0.86731984	     -0.27322943	     24.99135293	      1.68738485	    -13.85098276	    -36.20674440	     24.84546292	      6.25392733	      0.00000000	    -12.20932256	     -7.28082514	      0.57431288	    -48.82611779	     -6.26940056	     -2.49076992	      0.00000000	    -30.99323187	     15.17673049	    -14.99915032
      4.85000000	      4.54114817	     -4.07818736	     11.74469011	      0.59868006	      0.86967782	     -0.27236863	     23.88500922	      2.36287760	    -14.54555181	    -35.53576042	     25.69089637	      6.36195266	      0.00000000	     -9.18940674	     -7.81173772	      1.34452769	    -52.41796222	     -5.09796528	     -2.71376874	      0.00000000	    -30.52158627	     15.49395875	    -14.63718334
      4.86000000	      4.32037007	     -4.46616976	     12.17780177	      0.61337188	      0.87283578	     -0.27157810	     22.57734857	      2.97696764	    -15.12660204	    -34.50913850	     26.28295435	      6.45038998	      0.00000000	     -6.26469971	     -8.06796889	      2.13066434	    -55.50974208	     -3.70556981	     -3.06304473	      0.00000000	    -30.10450300	     15.63825345	    -14.25909835
      4.87000000	      4.11939767	     -4.69448885	     12.52405732	      0.62787741	      0.87673606	     -0.27081862	     21.07792733	      3.51756299	    -15.55419663	    -33.17810382	     26.63329487	      6.50486673	      0.00000000	     -3.48792658	     -8.04415580	      2.84724941	    -58.06582766	     -2.29635611	     -3.52087931	      0.00000000	    -29.75889629	     15.57449840	    -13.83510288
      4.88000000	      3.90517787	     -4.75984304	     12.74487807	      0.64224378	      0.88122337	     -0.27006857	     19.43887587	      3.97941712	    -15.77656135	    -31.58270328	     26.76743730	      6.52029689	      0.00000000	     -0.85535961	     -7.74949323	      3.41862034	    -60.08610346	     -0.95834659	     -4.04317753	      0.00000000	    -29.45719157	     15.30158699	    -13.37488081
      4.89000000	      3.64575841	     -4.66689833	     12.82235030	      0.65657664	      0.88611651	     -0.26926062	     17.70151513	      4.35656430	    -15.77935225	    -29.75105876	     26.70186748	      6.46372241	      0.00000000	      1.63456178	     -7.22176918	      3.79284134	    -61.56671569	      0.28516163	     -4.55510839	      0.00000000	    -29.13120393	     14.79119199	    -12.87862427
      4.90000000	      3.38355222	     -4.44894077	     12.80790703	      0.67084548	      0.89129742	     -0.26846896	     15.84800732	      4.65094542	    -15.65878048	    -27.72378315	     26.47868518	      6.39009831	      0.00000000	      3.95962129	     -6.52339902	      4.01502176	    -62.55386002	      1.36844271	     -5.04655228	      0.00000000	    -28.83677209	     14.12298996	    -12.34843047
      4.91000000	      3.05520207	     -4.05868438	     12.65398720	      0.68509341	      0.89655838	     -0.26759646	     13.97465372	      4.80579316	    -15.32344664	    -25.57444181	     26.08967269	      6.15712572	      0.00000000	      6.14780071	     -5.61600295	      4.03142727	    -63.05081050	      2.40516863	     -5.36158293	      0.00000000	    -28.50638625	     13.19925729	    -11.77507412
      4.92000000	      2.73181108	     -3.62457665	     12.46145818	      0.69933780	      0.90179204	     -0.26677052	     12.02880571	      4.92776409	    -14.94239338	    -23.28921518	     25.56343310	      5.86966248	      0.00000000	      8.18890217	     -4.67169944	      3.93358362	    -63.12131847	      3.36195801	     -5.60451118	      0.00000000	    -28.17190536	     12.23059682	    -11.20456582
      4.93000000	      2.37638918	     -3.09144785	     12.22454794	      0.71354080	      0.90684883	     -0.26598810	     10.10065067	      4.92200427	    -14.56385084	    -20.98831523	     24.94475870	      5.56562305	      0.00000000	     10.10701537	     -3.62355002	      3.72849905	    -62.78091977	      4.27966543	     -5.68857703	      0.00000000	    -27.81316349	     11.14109807	    -10.64843651
      4.94000000	      1.97822424	     -2.46210286	     11.97301565	      0.72768913	      0.91161522	     -0.26528117	      8.25158558	      4.75048282	    -14.35397587	    -18.77035386	     24.39250430	      5.50136020	      0.00000000	     11.92523890	     -2.47601714	      3.44774509	    -62.05249494	      5.09363943	     -5.64341809	      0.00000000	    -27.41272267	      9.94289604	    -10.16090367
      4.95000000	      1.61604795	     -1.94113046	     11.68410800	      0.74183162	      0.91600232	     -0.26453212	      6.38230890	      4.74193543	    -13.89791368	    -16.48256073	     23.47274192	      4.93491098	      0.00000000	     13.62737747	     -1.51806763	      3.06095419	    -61.01865696	      6.01536850	     -5.44810980	      0.00000000	    -27.02508080	      8.86950191	     -9.62174097
